<svg width="34" height="34" viewBox="0 0 34 34" fill="none" xmlns="http://www.w3.org/2000/svg">
<g id="COCO/Bold/Monitor">
<path id="Vector" d="M23.1084 4.86044C19.0744 4.04652 14.9259 4.04652 10.8919 4.86044C8.36533 5.37022 6.33203 7.30484 5.63449 9.86272L5.57512 10.0804C4.75296 13.0953 4.75295 16.2859 5.57512 19.3008L5.63449 19.5184C6.33203 22.0763 8.36533 24.0109 10.8919 24.5207C12.5892 24.8632 14.3067 25.0615 16.0275 25.1158V27.7421H13.758C13.2208 27.7421 12.7853 28.1916 12.7853 28.746C12.7853 29.3005 13.2208 29.75 13.758 29.75H20.2423C20.7795 29.75 21.215 29.3005 21.215 28.746C21.215 28.1916 20.7795 27.7421 20.2423 27.7421H17.9728V25.1158C19.6936 25.0615 21.4111 24.8632 23.1084 24.5207C25.635 24.0109 27.6683 22.0763 28.3658 19.5184L28.4252 19.3007C29.2474 16.2859 29.2474 13.0953 28.4252 10.0804L28.3658 9.86272C27.6683 7.30484 25.635 5.37022 23.1084 4.86044Z" fill="white"/>
</g>
</svg>
